<svg width="264" height="121" viewBox="0 0 264 121" fill="none" xmlns="http://www.w3.org/2000/svg">
<path fill-rule="evenodd" clip-rule="evenodd" d="M277.903 151.548C277.903 158.114 272.58 163.437 266.014 163.437L-2.97167 163.437C-9.53771 163.437 -14.8605 158.114 -14.8605 151.548L-14.8605 45.2913C-14.8605 38.7252 -9.53771 33.4024 -2.97167 33.4024H113.002C116.945 33.4024 120.632 31.4476 122.844 28.1838L138.042 5.76048C140.254 2.49666 143.94 0.541885 147.883 0.541885L263.811 0.541885C270.377 0.541885 275.7 5.86471 275.7 12.4308V32.3011C275.7 32.9093 276.193 33.4024 276.801 33.4024V33.4024C277.41 33.4024 277.903 33.8955 277.903 34.5037V151.548Z" fill="#047C3F"/>
</svg>
