<svg width="161" height="30" viewBox="0 0 161 30" fill="none" xmlns="http://www.w3.org/2000/svg">
<path fill-rule="evenodd" clip-rule="evenodd" d="M78.8331 27.8424C81.5092 29.3033 84.9237 29.9099 88.1738 29.9099V29.913C91.4238 29.8718 94.8383 29.2652 97.4306 27.8456V17.9561H90.8048V24.6825C89.9826 25.0064 89.0798 25.1271 88.1319 25.1271C87.1839 25.1271 86.2779 25.0064 85.4976 24.6825V5.2274C86.3198 4.90347 87.1871 4.78278 88.1319 4.78278C89.0766 4.78278 90.0245 4.90347 90.8048 5.2274V11.957H97.4306V2.06746C94.7996 0.606582 91.4657 0 88.1738 0C84.8818 0 81.4673 0.647867 78.8331 2.06746V27.8424ZM100.31 27.6804C102.986 29.1794 106.359 29.9099 109.857 29.9099C113.313 29.8686 116.728 29.1794 119.32 27.6804V2.18814C116.686 0.689153 113.394 0 109.857 0C106.32 0 102.944 0.730438 100.31 2.18814V27.6804ZM109.818 4.82407C110.969 4.82407 111.917 4.98604 112.697 5.30997V24.5618C111.875 24.927 110.931 25.089 109.818 25.089C108.706 25.089 107.758 24.927 106.978 24.5618V5.30997C107.761 4.98604 108.667 4.82407 109.818 4.82407ZM130.882 18.966H129.112V29.5446H122.406V0.365219H130.882C134.916 0.365219 137.96 1.17505 140.345 2.83601V16.4952C138.001 18.118 134.913 18.966 130.882 18.966ZM133.681 5.38937C133.065 4.94475 132.24 4.7415 130.84 4.7415H129.028V14.5897H130.84C132.198 14.5897 133.02 14.3865 133.681 13.9831V5.38937ZM154.374 18.966V29.5446H161V2.14685C158.572 0.730439 155.2 0 151.908 0C148.616 0 145.201 0.727263 142.773 2.14685V29.5446H149.438V18.966H154.374ZM151.904 4.57953C152.81 4.57953 153.675 4.7415 154.374 5.06543H154.371V14.3452H149.435V5.06543C150.134 4.7415 150.998 4.57953 151.904 4.57953ZM27.8572 22.1389V5.24013H31.0291V22.1389H27.8572ZM61.8384 18.3865V21.6295V21.6338L70.9274 18.3185H70.9489V14.9863H70.9274L61.8384 11.6541V14.8972L66.5014 16.6418L61.8384 18.3865ZM52.59 23.9642L57.9339 7.06542H61.1058L55.7619 23.9642H52.59ZM9.11911 11.7984V15.0373L4.45181 16.7862L9.11911 18.5435V21.7908L0.0172384 18.4586H0V15.1307H0.0172384L9.11911 11.7984ZM22.4918 11.3527C23.3968 12.329 23.8708 13.6195 23.8148 14.9396V22.1389H20.643V15.6018C20.6817 14.8717 20.4447 14.1586 19.9793 13.5898C19.5397 13.0846 18.8889 12.8045 18.2123 12.8342C16.2256 12.8342 15.2301 14.1925 15.2301 16.905V22.1389H12.0582V10.3212H15.2301V11.3867C16.2385 10.4231 17.6047 9.90947 19.0096 9.96889C20.3197 9.91371 21.5868 10.4188 22.4918 11.3527ZM48.9656 22.1389H46.3195L43.7251 15.1773L41.1049 22.1389H38.4588L34.0113 10.3H37.403L39.9025 17.3804L42.4797 10.3H44.9577L47.5348 17.4017L50.0344 10.3H53.426L48.9742 22.1389H48.9656Z" fill="#F7DD43"/>
</svg>
