<svg width="264" height="58" viewBox="0 0 264 58" fill="none" xmlns="http://www.w3.org/2000/svg">
<path fill-rule="evenodd" clip-rule="evenodd" d="M-56.4721 -94.3677C-56.4721 -100.934 -51.1493 -106.257 -44.5832 -106.257L266.013 -106.257C272.579 -106.257 277.902 -100.934 277.902 -94.3677V-2.97207C277.902 3.59397 272.579 8.91679 266.013 8.91679L101.139 8.91679C97.2012 8.91679 93.519 10.8664 91.3057 14.1231L65.5586 52.0088C63.3453 55.2656 59.6632 57.2152 55.7256 57.2152L-126.319 57.2152C-132.885 57.2152 -138.208 51.8924 -138.208 45.3263V19.3194C-138.208 12.7534 -132.885 7.43055 -126.319 7.43055L-68.361 7.43055C-61.7949 7.43055 -56.4721 2.10774 -56.4721 -4.4583V-94.3677Z" fill="#047C3F"/>
</svg>
